<?xml version="1.0" standalone="no"?>
<!DOCTYPE svg PUBLIC "-//W3C//DTD SVG 20010904//EN"
 "http://www.w3.org/TR/2001/REC-SVG-20010904/DTD/svg10.dtd">
<svg version="1.0" xmlns="http://www.w3.org/2000/svg"
 width="32.000000pt" height="32.000000pt" viewBox="0 0 32.000000 32.000000"
 preserveAspectRatio="xMidYMid meet">

<g transform="translate(0.000000,32.000000) scale(0.100000,-0.100000)"
fill="#000000" stroke="none">
<path d="M12 308 c-17 -17 -17 -279 0 -296 17 -17 279 -17 296 0 17 17 17 279
0 296 -17 17 -279 17 -296 0z m178 -97 c0 -18 -43 -111 -51 -111 -14 0 -11 17
12 71 19 43 39 64 39 40z m50 -76 c-17 -18 -27 -22 -34 -14 -8 7 -6 14 6 23
16 11 16 14 1 28 -8 9 -12 21 -8 28 5 9 15 5 33 -14 l26 -25 -24 -26z m-120
56 c0 -5 -7 -14 -16 -22 -14 -12 -14 -14 2 -26 12 -9 15 -16 8 -23 -7 -7 -18
-2 -34 15 -23 24 -23 25 -5 45 18 20 45 27 45 11z"/>
</g>
</svg>
