<?xml version="1.0" encoding="UTF-8"?>
<svg version="1.1" xmlns="http://www.w3.org/2000/svg" width="32" height="32">
<path d="M0 0 C2.01055661 0.26224651 4.01178687 0.60235737 6 1 C9.87742742 1.13074409 9.87742742 1.13074409 13.125 0.375 C14.07375 0.25125 15.0225 0.1275 16 0 C18 2 18 2 18.125 5.625 C18.08375 6.73875 18.0425 7.8525 18 9 C18.804375 9.226875 19.60875 9.45375 20.4375 9.6875 C21.283125 10.120625 22.12875 10.55375 23 11 C23.8125 13.625 23.8125 13.625 24 16 C20.25 19 20.25 19 18 19 C18.04125 20.11375 18.0825 21.2275 18.125 22.375 C18 26 18 26 16 28 C13.98944339 27.73775349 11.98821313 27.39764263 10 27 C6.12257258 26.86925591 6.12257258 26.86925591 2.875 27.625 C1.92625 27.74875 0.9775 27.8725 0 28 C-2 26 -2 26 -2.125 22.375 C-2.08375 21.26125 -2.0425 20.1475 -2 19 C-2.804375 18.773125 -3.60875 18.54625 -4.4375 18.3125 C-5.7059375 17.6628125 -5.7059375 17.6628125 -7 17 C-7.8125 14.375 -7.8125 14.375 -8 12 C-4.25 9 -4.25 9 -2 9 C-2.04125 7.88625 -2.0825 6.7725 -2.125 5.625 C-2 2 -2 2 0 0 Z M1 2 C-0.01111093 5.04913228 -0.01111093 5.04913228 1 8 C2.32 7.67 3.64 7.34 5 7 C5 5.68 5 4.36 5 3 C3.68 2.67 2.36 2.34 1 2 Z M10 4 C10.66 5.32 11.32 6.64 12 8 C12.99 8 13.98 8 15 8 C16.01111093 4.95086772 16.01111093 4.95086772 15 2 C12.67642489 1.81509993 12.67642489 1.81509993 10 4 Z M5 10 C3.80161791 12.32854463 3.80161791 12.32854463 3 15 C3.99 16.485 3.99 16.485 5 18 C8.08365871 18.2502157 8.08365871 18.2502157 11 18 C12.19838209 15.67145537 12.19838209 15.67145537 13 13 C12.34 12.01 11.68 11.02 11 10 C7.91634129 9.7497843 7.91634129 9.7497843 5 10 Z M-3 11 C-3.99 11.495 -3.99 11.495 -5 12 C-5 13.32 -5 14.64 -5 16 C-3.68 16.33 -2.36 16.66 -1 17 C-0.67 15.35 -0.34 13.7 0 12 C-0.99 11.67 -1.98 11.34 -3 11 Z M17 11 C16.67 12.65 16.34 14.3 16 16 C16.99 16.33 17.98 16.66 19 17 C19.66 16.67 20.32 16.34 21 16 C21 14.68 21 13.36 21 12 C19.68 11.67 18.36 11.34 17 11 Z M1 20 C-0.01111093 23.04913228 -0.01111093 23.04913228 1 26 C2.65 25.34 4.3 24.68 6 24 C5.34 22.68 4.68 21.36 4 20 C3.01 20 2.02 20 1 20 Z M12 20 C11.34 21.32 10.68 22.64 10 24 C12.475 24.99 12.475 24.99 15 26 C16.01111093 22.95086772 16.01111093 22.95086772 15 20 C14.01 20 13.02 20 12 20 Z " fill="#4F46E5" transform="translate(8,2)"/>
<path d="M0 0 C1.65 0.33 3.3 0.66 5 1 C4.67 2.65 4.34 4.3 4 6 C2.35 5.67 0.7 5.34 -1 5 C-0.67 3.35 -0.34 1.7 0 0 Z " fill="#4F46E5" transform="translate(14,13)"/>
</svg>
