<?xml version="1.0" encoding="UTF-8"?>
<svg version="1.1" xmlns="http://www.w3.org/2000/svg" width="32" height="32">
<path d="M0 0 C-0.66 1.65 -1.32 3.3 -2 5 C-0.35 6.65 1.3 8.3 3 10 C2.34 11.98 1.68 13.96 1 16 C-1.10241603 16.13496251 -3.2072961 16.23197307 -5.3125 16.3125 C-6.48425781 16.37050781 -7.65601563 16.42851562 -8.86328125 16.48828125 C-12 16 -12 16 -13.91796875 13.66796875 C-15 11 -15 11 -15 8 C-15.50789062 8.5775 -16.01578125 9.155 -16.5390625 9.75 C-22.23156089 15.89022298 -22.23156089 15.89022298 -26.5 16.5 C-27.325 16.335 -28.15 16.17 -29 16 C-29 15.34 -29 14.68 -29 14 C-27.16158274 12.1902334 -25.17840171 10.59801168 -23.19140625 8.953125 C-20.98389059 7.09819239 -20.98389059 7.09819239 -19.40234375 4.984375 C-14.13254045 -1.64668184 -7.9540219 -0.69501162 0 0 Z M-8 3 C-8.66 5.64 -9.32 8.28 -10 11 C-7.69 11 -5.38 11 -3 11 C-3.45375 10.4225 -3.9075 9.845 -4.375 9.25 C-5.84113516 7.2199667 -6.94857784 5.26460157 -8 3 Z " fill="#A1ACAD" transform="translate(29,8)"/>
<path d="M0 0 C2.31 0 4.62 0 7 0 C6.34 1.65 5.68 3.3 5 5 C6.65 6.65 8.3 8.3 10 10 C9.34 11.65 8.68 13.3 8 15 C4.7 15 1.4 15 -2 15 C-2.33 14.01 -2.66 13.02 -3 12 C-0.36 12 2.28 12 5 12 C5 11.34 5 10.68 5 10 C4.360625 9.690625 3.72125 9.38125 3.0625 9.0625 C1 8 1 8 0 7 C-0.04092937 4.66702567 -0.04241723 2.33294775 0 0 Z " fill="#ADC655" transform="translate(22,8)"/>
<path d="M0 0 C-0.59047323 3.56677749 -1.95735668 5.41533359 -4.375 8.0625 C-4.98085937 8.73410156 -5.58671875 9.40570313 -6.2109375 10.09765625 C-6.80132812 10.72542969 -7.39171875 11.35320313 -8 12 C-8.50402344 12.57234375 -9.00804687 13.1446875 -9.52734375 13.734375 C-11.84027369 15.72214503 -14.07828289 15.19478114 -17 15 C-17 14.34 -17 13.68 -17 13 C-15.4609375 11.484375 -15.4609375 11.484375 -13.375 9.75 C-10.66336922 7.46071172 -8.12182272 5.14398581 -5.6875 2.5625 C-3 0 -3 0 0 0 Z " fill="#3CAEDF" transform="translate(17,9)"/>
<path d="M0 0 C-0.57323431 3.86933162 -2.38953552 6.15222057 -5 9 C-5.66 9 -6.32 9 -7 9 C-7.8125 7.3125 -7.8125 7.3125 -8 5 C-3.90909091 0 -3.90909091 0 0 0 Z " fill="#1C72CA" transform="translate(17,9)"/>
<path d="M0 0 C1.98 0 3.96 0 6 0 C7 3 7 3 6.0625 5.1875 C5.5365625 6.0846875 5.5365625 6.0846875 5 7 C3.35 6.67 1.7 6.34 0 6 C0.66 4.35 1.32 2.7 2 1 C1.34 0.67 0.68 0.34 0 0 Z " fill="#C9D2DD" transform="translate(15,8)"/>
<path d="M0 0 C2.31 0 4.62 0 7 0 C6.6875 1.9375 6.6875 1.9375 6 4 C5.01 4.33 4.02 4.66 3 5 C2.34 4.67 1.68 4.34 1 4 C0.67 4.99 0.34 5.98 0 7 C0 4.69 0 2.38 0 0 Z " fill="#AEC659" transform="translate(22,8)"/>
<path d="M0 0 C2.97 0 5.94 0 9 0 C9.33 0.99 9.66 1.98 10 3 C7.03 3 4.06 3 1 3 C0.67 2.01 0.34 1.02 0 0 Z " fill="#93B525" transform="translate(19,20)"/>
<path d="M0 0 C0.99 0.99 1.98 1.98 3 3 C1.35 4.65 -0.3 6.3 -2 8 C-2.66 7.34 -3.32 6.68 -4 6 C-2.68 5.34 -1.36 4.68 0 4 C-0.33 3.01 -0.66 2.02 -1 1 C-0.67 0.67 -0.34 0.34 0 0 Z " fill="#2DACE2" transform="translate(8,15)"/>
<path d="M0 0 C2.475 0.99 2.475 0.99 5 2 C5 2.66 5 3.32 5 4 C3.68 4.33 2.36 4.66 1 5 C0.67 3.35 0.34 1.7 0 0 Z " fill="#80A71B" transform="translate(23,12)"/>
</svg>
